<svg xmlns="http://www.w3.org/2000/svg" width="472" height="158" fill="none" viewBox="0 0 472 158"><rect width="22.145" height="20.714" x="203.103" y="41.702" fill="#7592FF" stroke="#7592FF" stroke-width=".753" rx="2.634"/><rect width="22.145" height="20.714" x="246.752" y="41.702" fill="#7592FF" stroke="#7592FF" stroke-width=".753" rx="2.634"/><rect width="22.145" height="20.714" x="258.201" y="98.231" fill="#7592FF" stroke="#7592FF" stroke-width=".753" rx="2.634"/><rect width="22.145" height="20.714" x="191.654" y="98.231" fill="#7592FF" stroke="#7592FF" stroke-width=".753" rx="2.634"/><rect width="57.566" height="20.714" x="207.396" y="82.847" fill="#7592FF" stroke="#7592FF" stroke-width=".753" rx="2.634"/><rect width="166.462" height="130.311" x="152.769" y="15.167" stroke="#7592FF" stroke-width="24" rx="28"/><rect width="32.626" height="77.596" x=".041" y=".522" fill="#7592FF" rx="6.263"/><rect width="32.626" height="77.596" x=".041" y=".522" stroke="#7592FF" rx="6.263"/><rect width="32.626" height="154.31" x="75.873" y="3.168" fill="#7592FF" rx="6.263"/><rect width="32.626" height="154.31" x="75.873" y="3.168" stroke="#7592FF" rx="6.263"/><rect width="32.626" height="77.596" x="16.794" y="91.344" fill="#7592FF" rx="6.263" transform="rotate(-90 16.7939 91.3438)"/><rect width="32.626" height="77.596" x="16.794" y="91.344" stroke="#7592FF" rx="6.263" transform="rotate(-90 16.7939 91.3438)"/><rect width="32.626" height="77.596" x="363.502" y=".522" fill="#7592FF" rx="6.263"/><rect width="32.626" height="77.596" x="363.502" y=".522" stroke="#7592FF" rx="6.263"/><rect width="32.626" height="154.31" x="439.334" y="3.168" fill="#7592FF" rx="6.263"/><rect width="32.626" height="154.31" x="439.334" y="3.168" stroke="#7592FF" rx="6.263"/><rect width="32.626" height="77.596" x="380.255" y="91.344" fill="#7592FF" rx="6.263" transform="rotate(-90 380.255 91.3438)"/><rect width="32.626" height="77.596" x="380.255" y="91.344" stroke="#7592FF" rx="6.263" transform="rotate(-90 380.255 91.3438)"/></svg>