<svg xmlns="http://www.w3.org/2000/svg" width="562" height="156" fill="none" viewBox="0 0 562 156"><rect width="32.626" height="71" x=".161" y="13.43" fill="#7592FF" rx="6.263"/><rect width="32.626" height="71" x=".161" y="13.43" stroke="#7592FF" rx="6.263"/><rect width="32.626" height="63.58" x="88.289" y="80.15" fill="#7592FF" rx="6.263"/><rect width="32.626" height="63.58" x="88.289" y="80.15" stroke="#7592FF" rx="6.263"/><rect width="32.626" height="105.389" x="15.525" y="33.467" fill="#7592FF" rx="6.263" transform="rotate(-90 15.5254 33.4668)"/><rect width="32.626" height="105.389" x="15.525" y="33.467" stroke="#7592FF" rx="6.263" transform="rotate(-90 15.5254 33.4668)"/><rect width="30" height="107.028" x=".161" y="155.16" fill="#7592FF" rx="6.263" transform="rotate(-90 0.161133 155.16)"/><rect width="30" height="107.028" x=".161" y="155.16" stroke="#7592FF" rx="6.263" transform="rotate(-90 0.161133 155.16)"/><rect width="32.626" height="91.664" x="15.525" y="96.34" fill="#7592FF" rx="6.263" transform="rotate(-90 15.5254 96.3398)"/><rect width="32.626" height="91.664" x="15.525" y="96.34" stroke="#7592FF" rx="6.263" transform="rotate(-90 15.5254 96.3398)"/><rect width="166.462" height="130.311" x="162.915" y="12.85" stroke="#7592FF" stroke-width="24" rx="28"/><rect width="22.145" height="20.714" x="213.52" y="42.029" fill="#7592FF" stroke="#7592FF" stroke-width=".753" rx="2.634"/><rect width="22.145" height="20.714" x="257.168" y="42.029" fill="#7592FF" stroke="#7592FF" stroke-width=".753" rx="2.634"/><rect width="22.145" height="20.714" x="268.618" y="98.558" fill="#7592FF" stroke="#7592FF" stroke-width=".753" rx="2.634"/><rect width="22.145" height="20.714" x="202.071" y="98.558" fill="#7592FF" stroke="#7592FF" stroke-width=".753" rx="2.634"/><rect width="57.566" height="20.714" x="217.813" y="83.173" fill="#7592FF" stroke="#7592FF" stroke-width=".753" rx="2.634"/><rect width="166.462" height="130.311" x="383.377" y="12.85" stroke="#7592FF" stroke-width="24" rx="28"/><rect width="22.145" height="20.714" x="433.982" y="42.029" fill="#7592FF" stroke="#7592FF" stroke-width=".753" rx="2.634"/><rect width="22.145" height="20.714" x="477.63" y="42.029" fill="#7592FF" stroke="#7592FF" stroke-width=".753" rx="2.634"/><rect width="22.145" height="20.714" x="489.079" y="98.558" fill="#7592FF" stroke="#7592FF" stroke-width=".753" rx="2.634"/><rect width="22.145" height="20.714" x="422.533" y="98.558" fill="#7592FF" stroke="#7592FF" stroke-width=".753" rx="2.634"/><rect width="57.566" height="20.714" x="438.275" y="83.173" fill="#7592FF" stroke="#7592FF" stroke-width=".753" rx="2.634"/></svg>