<svg xmlns="http://www.w3.org/2000/svg" width="494" height="156" fill="none" viewBox="0 0 494 156"><rect width="32.626" height="71" x=".516" y="13.449" fill="#7592FF" rx="6.263"/><rect width="32.626" height="71" x=".516" y="13.449" stroke="#7592FF" rx="6.263"/><rect width="32.626" height="63.58" x="88.644" y="80.17" fill="#7592FF" rx="6.263"/><rect width="32.626" height="63.58" x="88.644" y="80.17" stroke="#7592FF" rx="6.263"/><rect width="32.626" height="105.389" x="15.88" y="33.486" fill="#7592FF" rx="6.263" transform="rotate(-90 15.8799 33.4863)"/><rect width="32.626" height="105.389" x="15.88" y="33.486" stroke="#7592FF" rx="6.263" transform="rotate(-90 15.8799 33.4863)"/><rect width="30" height="107.028" x=".516" y="155.18" fill="#7592FF" rx="6.263" transform="rotate(-90 0.515625 155.18)"/><rect width="30" height="107.028" x=".516" y="155.18" stroke="#7592FF" rx="6.263" transform="rotate(-90 0.515625 155.18)"/><rect width="32.626" height="91.664" x="15.88" y="96.359" fill="#7592FF" rx="6.263" transform="rotate(-90 15.8799 96.3594)"/><rect width="32.626" height="91.664" x="15.88" y="96.359" stroke="#7592FF" rx="6.263" transform="rotate(-90 15.8799 96.3594)"/><rect width="166.462" height="130.311" x="163.27" y="12.869" stroke="#7592FF" stroke-width="24" rx="28"/><rect width="22.145" height="20.714" x="213.874" y="42.048" fill="#7592FF" stroke="#7592FF" stroke-width=".753" rx="2.634"/><rect width="22.145" height="20.714" x="257.523" y="42.048" fill="#7592FF" stroke="#7592FF" stroke-width=".753" rx="2.634"/><rect width="22.145" height="20.714" x="268.972" y="98.578" fill="#7592FF" stroke="#7592FF" stroke-width=".753" rx="2.634"/><rect width="22.145" height="20.714" x="202.425" y="98.578" fill="#7592FF" stroke="#7592FF" stroke-width=".753" rx="2.634"/><rect width="57.566" height="20.714" x="218.167" y="83.193" fill="#7592FF" stroke="#7592FF" stroke-width=".753" rx="2.634"/><rect width="32.626" height="132.562" x="460.859" y="11.188" fill="#7592FF" rx="6.263"/><rect width="32.626" height="132.562" x="460.859" y="11.188" stroke="#7592FF" rx="6.263"/><rect width="32.626" height="107.028" x="371.731" y="33.445" fill="#7592FF" rx="6.263" transform="rotate(-90 371.731 33.4453)"/><rect width="32.626" height="107.028" x="371.731" y="33.445" stroke="#7592FF" rx="6.263" transform="rotate(-90 371.731 33.4453)"/><rect width="30" height="107.028" x="371.731" y="155.18" fill="#7592FF" rx="6.263" transform="rotate(-90 371.731 155.18)"/><rect width="30" height="107.028" x="371.731" y="155.18" stroke="#7592FF" rx="6.263" transform="rotate(-90 371.731 155.18)"/><rect width="32.626" height="91.664" x="388.096" y="93.781" fill="#7592FF" rx="6.263" transform="rotate(-90 388.096 93.7812)"/><rect width="32.626" height="91.664" x="388.096" y="93.781" stroke="#7592FF" rx="6.263" transform="rotate(-90 388.096 93.7812)"/></svg>