<svg xmlns="http://www.w3.org/2000/svg" width="32" height="32" fill="none" viewBox="0 0 32 32"><g clip-path="url(#clip0_1788_4322)"><path fill="#F0F0F0" d="M16 32C24.8366 32 32 24.8366 32 16C32 7.16344 24.8366 0 16 0C7.16344 0 0 7.16344 0 16C0 24.8366 7.16344 32 16 32Z"/><path fill="#D80027" d="M32 15.9999C32 9.12049 27.658 3.2558 21.5652 0.995117V31.0048C27.658 28.7441 32 22.8794 32 15.9999Z"/><path fill="#0052B4" d="M0.000488281 16.001C0.000488281 22.8805 4.34255 28.7452 10.4353 31.0058V0.996216C4.34255 3.2569 0.000488281 9.12159 0.000488281 16.001Z"/></g><defs><clipPath id="clip0_1788_4322"><rect width="32" height="32" fill="#fff"/></clipPath></defs></svg>